<svg xmlns="http://www.w3.org/2000/svg" fill="none" viewBox="0 0 50 50" height="50" width="50">
<g clip-path="url(#clip0_2409_237)">
<g clip-path="url(#clip1_2409_237)">
<path fill="black" d="M10 10V40H40V10H10ZM35.2 18.475L32.0125 17.95L31.4875 14.7625L38.5 11.5L35.2 18.475ZM14.8 31.525L17.9875 32.05L18.5125 35.2375L11.5 38.5L14.8 31.525ZM34.7875 30.625L32.2 31.0375L32.9125 26.6125L34.7875 30.625ZM32.1625 25.075L31.15 31.1875L25.0375 32.2L25 32.125L24.925 32.1625L18.8125 31.15L17.8 25.0375L17.8375 24.9625L17.8 24.8875L18.8125 18.775L24.925 17.7625L25 17.8L25.075 17.7625L31.1875 18.775L32.2 24.8875L32.125 25L32.1625 25.075ZM15.2125 19.375L17.8 18.9625L17.0875 23.3875L15.2125 19.375ZM26.6125 17.0875L30.5875 15.2125L31 17.8L26.6125 17.0875ZM25 16.825L21.175 15.025H28.825L25 16.825ZM23.3875 17.0875L19 17.8L19.4125 15.2125L23.3875 17.0875ZM17.95 17.95L14.7625 18.475L11.5 11.5L18.5125 14.8L17.95 17.95ZM16.825 25L15.025 28.825V21.175L16.825 25ZM17.0875 26.6125L17.8 31L15.2125 30.5875L17.0875 26.6125ZM18.9625 32.2L23.3875 32.9125L19.4125 34.7875L18.9625 32.2ZM25 33.175L28.825 34.975H21.175L25 33.175ZM26.6125 32.9125L31 32.2L30.5875 34.7875L26.6125 32.9125ZM32.05 32.05L35.2375 31.525L38.5 38.5L31.4875 35.1625L32.05 32.05ZM33.175 25L34.975 21.175V28.825L33.175 25ZM32.9125 23.3875L32.2 19L34.7875 19.4125L32.9125 23.3875ZM30.8875 14.05H19.1125L12.6625 10.975H37.375L30.8875 14.05ZM14.05 19.1125V30.85L10.975 37.3375V12.6625L14.05 19.1125ZM19.1125 35.95H30.85L37.3375 39.025H12.625L19.1125 35.95ZM35.95 30.8875V19.1125L39.025 12.625V37.3375L35.95 30.8875Z"></path>
</g>
</g>
<defs>
<clipPath id="clip0_2409_237">
<rect transform="translate(10 10)" fill="white" height="30" width="30"></rect>
</clipPath>
<clipPath id="clip1_2409_237">
<rect transform="translate(10 10)" fill="white" height="30" width="30"></rect>
</clipPath>
</defs>
</svg>
